{"title":"Journey Of a Legend - Dada Moni aka Ashok Kumar XVID","uid":7889280,"size":511644506,"categoryP":"video","categoryS":"movies","magnet":"?xt=urn:btih:47b6531e4e2ce214897ac29a6d4da91729e272b7&amp;dn=Journey+Of+a+Legend+-+Dada+Moni+aka+Ashok+Kumar+XVID&amp;tr=udp%3A%2F%2Ftracker.openbittorrent.com%3A80&amp;tr=udp%3A%2F%2Fopen.demonii.com%3A1337&amp;tr=udp%3A%2F%2Ftracker.coppersurfer.tk%3A6969&amp;tr=udp%3A%2F%2Fexodus.desync.com%3A6969","seeders":0,"leechers":0,"uploader":"swarint","files":1,"time":1354687025,"description":" &lt;a href=&quot;http://i970.photobucket.com/albums/ae185/swarint/dada%20moni/vlcsnap-2012-12-03-11h47m45s25.png&quot; rel=&quot;nofollow&quot; target=&quot;_NEW&quot;&gt;http://i970.photobucket.com/albums/ae185/swarint/dada%20moni/vlcsnap-2012-12-03-11h47m45s25.png&lt;/a&gt; &lt;a href=&quot;\nhttp://i970.photobucket.com/albums/ae185/swarint/dada%20moni/vlcsnap-2012-12-03-11h48m12s69.png&quot; rel=&quot;nofollow&quot; target=&quot;_NEW&quot;&gt;\nhttp://i970.photobucket.com/albums/ae185/swarint/dada%20moni/vlcsnap-2012-12-03-11h48m12s69.png&lt;/a&gt; &lt;a href=&quot;\nhttp://i970.photobucket.com/albums/ae185/swarint/dada%20moni/vlcsnap-2012-12-03-11h49m03s66.png&quot; rel=&quot;nofollow&quot; target=&quot;_NEW&quot;&gt;\nhttp://i970.photobucket.com/albums/ae185/swarint/dada%20moni/vlcsnap-2012-12-03-11h49m03s66.png&lt;/a&gt; &lt;a href=&quot;\nhttp://i970.photobucket.com/albums/ae185/swarint/dada%20moni/vlcsnap-2012-12-03-11h49m13s163.png&quot; rel=&quot;nofollow&quot; target=&quot;_NEW&quot;&gt;\nhttp://i970.photobucket.com/albums/ae185/swarint/dada%20moni/vlcsnap-2012-12-03-11h49m13s163.png&lt;/a&gt; &lt;a href=&quot;\nhttp://i970.photobucket.com/albums/ae185/swarint/dada%20moni/vlcsnap-2012-12-03-11h49m18s216.png&quot; rel=&quot;nofollow&quot; target=&quot;_NEW&quot;&gt;\nhttp://i970.photobucket.com/albums/ae185/swarint/dada%20moni/vlcsnap-2012-12-03-11h49m18s216.png&lt;/a&gt; &lt;a href=&quot;\nhttp://i970.photobucket.com/albums/ae185/swarint/dada%20moni/vlcsnap-2012-12-03-11h49m22s249.png&quot; rel=&quot;nofollow&quot; target=&quot;_NEW&quot;&gt;\nhttp://i970.photobucket.com/albums/ae185/swarint/dada%20moni/vlcsnap-2012-12-03-11h49m22s249.png&lt;/a&gt; &lt;a href=&quot;\nhttp://i970.photobucket.com/albums/ae185/swarint/dada%20moni/vlcsnap-2012-12-03-11h49m27s45.png&quot; rel=&quot;nofollow&quot; target=&quot;_NEW&quot;&gt;\nhttp://i970.photobucket.com/albums/ae185/swarint/dada%20moni/vlcsnap-2012-12-03-11h49m27s45.png&lt;/a&gt; &lt;a href=&quot;\nhttp://i970.photobucket.com/albums/ae185/swarint/dada%20moni/vlcsnap-2012-12-03-11h49m33s111.png&quot; rel=&quot;nofollow&quot; target=&quot;_NEW&quot;&gt;\nhttp://i970.photobucket.com/albums/ae185/swarint/dada%20moni/vlcsnap-2012-12-03-11h49m33s111.png&lt;/a&gt; &lt;a href=&quot;\nhttp://i970.photobucket.com/albums/ae185/swarint/dada%20moni/vlcsnap-2012-12-03-11h49m55s79.png&quot; rel=&quot;nofollow&quot; target=&quot;_NEW&quot;&gt;\nhttp://i970.photobucket.com/albums/ae185/swarint/dada%20moni/vlcsnap-2012-12-03-11h49m55s79.png&lt;/a&gt; &lt;a href=&quot;\nhttp://i970.photobucket.com/albums/ae185/swarint/dada&quot; rel=&quot;nofollow&quot; target=&quot;_NEW&quot;&gt;\nhttp://i970.photobucket.com/albums/ae185/swarint/dada&lt;/a&gt; %20moni/ vlcsnap-2012-12-03-11h50m00s124.png &lt;a href=&quot;\nhttp://i970.photobucket.com/albums/ae185/swarint/dada%20moni/vlcsnap-2012-12-03-11h50m28s149.png&quot; rel=&quot;nofollow&quot; target=&quot;_NEW&quot;&gt;\nhttp://i970.photobucket.com/albums/ae185/swarint/dada%20moni/vlcsnap-2012-12-03-11h50m28s149.png&lt;/a&gt;\n\n\nFriends,\n\nAm sure you will like this docu on one and only Dada Moni, truly a man of all seasons and without doubt a Veteran, the variety or roles he did over so many decades it is AMAZING.\n\nAlways a pleasure to see him, RIP IN Dada.\n\nInfo-\n\n\nWatch the documentary &quot;Journey of a Legend - Ashok Kumar&quot;. Ashok Kumar takes through his journey in the Indian Film Industry in his own words. The actor from the Golden era shares his experiences and rare interviews associated with films. Some of his movies such as Achoot Kanya, Jhoola, Kismat, Meri Surat Teri Ankhein, Ashirwaad by S.K Films have been a super hit. Produced by Sambhu Munshi &amp; Kartik Das\nHe was one of the first anti-heroes of Indian Cinema with his role in the film Kismet (1943). This movie went on to create a record for the highest grossing film in India at the time of its release. He produced several films for Bombay Talkies during the final years of the company including the famous 'Mahal' in 1949 in which he co-starred with Madhubala. Watch the documentary to know more:\nProduced By: Sambhu Munshi and Kartik Das\nDirected By: Jyoti Prakash Roy\n\nSpecs-\nFormat : AVI\nFormat/Info : Audio Video Interleave\nFile size : 488 MiB\nDuration : 1h 5mn\nOverall bit rate : 1 042 Kbps\n\nVideo\nID : 0\nFormat : MPEG-4 Visual\nFormat profile : Simple@L3\nFormat settings, BVOP : No\nFormat settings, QPel : No\nFormat settings, GMC : No warppoints\nFormat settings, Matrix : Default (H.263)\nCodec ID : XVID\nCodec ID/Hint : XviD\nDuration : 1h 5mn\nBit rate : 898 Kbps\nWidth : 492 pixels\nHeight : 360 pixels\nDisplay aspect ratio : 4:3\nFrame rate : 25.000 fps\nColor space : YUV\nChroma subsampling : 4:2:0\nBit depth : 8 bits\nScan type : Progressive\nCompression mode : Lossy\nBits/(Pixel*Frame) : 0.203\nStream size : 420 MiB (86%)\nWriting library : XviD 1.2.1 (UTC 2008-12-04)\n\nAudio\nID : 1\nFormat : MPEG Audio\nFormat version : Version 1\nFormat profile : Layer 3\nMode : Joint stereo\nMode extension : MS Stereo\nCodec ID : 55\nCodec ID/Hint : MP3\nDuration : 1h 5mn\nBit rate mode : Constant\nBit rate : 128 Kbps\nChannel(s) : 2 channels\nSampling rate : 44.1 KHz\nCompression mode : Lossy\nStream size : 59.9 MiB (12%)\nAlignment : Aligned on interleaves\nInterleave, duration : 26 ms (0.65 video frame)\nWriting library : LAME3.98.2\n\n\nCommentary by OM PURI saheb\n\nAs always apprec any valuable comments and/or...... and bear with my tortoise speed, cheers :)","torrent":{"xt":"urn:btih:47b6531e4e2ce214897ac29a6d4da91729e272b7","amp;dn":"Journey+Of+a+Legend+-+Dada+Moni+aka+Ashok+Kumar+XVID","amp;tr":["udp%3A%2F%2Ftracker.openbittorrent.com%3A80","udp%3A%2F%2Fopen.demonii.com%3A1337","udp%3A%2F%2Ftracker.coppersurfer.tk%3A6969","udp%3A%2F%2Fexodus.desync.com%3A6969"],"infoHash":"47b6531e4e2ce214897ac29a6d4da91729e272b7","infoHashBuffer":{"type":"Buffer","data":[71,182,83,30,78,44,226,20,137,122,194,154,109,77,169,23,41,226,114,183]},"announce":[],"urlList":[]}}